<svg width="24" height="24" viewBox="0 0 24 24" fill="none" xmlns="http://www.w3.org/2000/svg">
    <path d="M19.04 16.04v3.008c0 .45-.301.752-.752.752H4.752c-.451 0-.752-.301-.752-.753V9.272c0-.451.3-.752.752-.752h13.536c.45 0 .752.3.752.752v3.008h-3.384c-1.053 0-1.88.827-1.88 1.88 0 1.052.827 1.88 1.88 1.88h3.384zm-3.384-2.632c-.452 0-.752.3-.752.752 0 .45.3.752.752.752.45 0 .752-.301.752-.752 0-.452-.301-.752-.752-.752zM14.152 1c-1.053 0-1.88.827-1.88 1.88s.827 1.88 1.88 1.88 1.88-.827 1.88-1.88S15.204 1 14.152 1zm-2.858 6.016c.15-.301.226-.602.226-.978 0-1.278-.978-2.256-2.256-2.256-1.279 0-2.256.978-2.256 2.256 0 .376.075.677.226.978h4.06z" fill="#8325E7"/>
</svg>
