<svg width="24" height="25" viewBox="0 0 24 25" fill="none" xmlns="http://www.w3.org/2000/svg">
<g id="Frame 289504">
<path id="Subtract" fill-rule="evenodd" clip-rule="evenodd" d="M3.05442 4.55442C2 5.60883 2 7.30589 2 10.7V14.3C2 17.6941 2 19.3912 3.05442 20.4456C4.10883 21.5 5.80589 21.5 9.2 21.5H14.8C18.1941 21.5 19.8912 21.5 20.9456 20.4456C22 19.3912 22 17.6941 22 14.3V10.7C22 7.30589 22 5.60883 20.9456 4.55442C19.8912 3.5 18.1941 3.5 14.8 3.5H9.2C5.80589 3.5 4.10883 3.5 3.05442 4.55442ZM16 8.30781C16.6627 8.30781 17.2 8.84507 17.2 9.50781V17.5078C17.2 18.1706 16.6627 18.7078 16 18.7078C15.3373 18.7078 14.8 18.1706 14.8 17.5078V9.50781C14.8 8.84507 15.3373 8.30781 16 8.30781ZM9.19609 11.5C9.19609 10.8373 8.65884 10.3 7.99609 10.3C7.33335 10.3 6.79609 10.8373 6.79609 11.5V17.5C6.79609 18.1627 7.33335 18.7 7.99609 18.7C8.65884 18.7 9.19609 18.1627 9.19609 17.5L9.19609 11.5ZM13.1961 13.5078C13.1961 12.8451 12.6588 12.3078 11.9961 12.3078C11.3334 12.3078 10.7961 12.8451 10.7961 13.5078V17.5078C10.7961 18.1706 11.3334 18.7078 11.9961 18.7078C12.6588 18.7078 13.1961 18.1706 13.1961 17.5078V13.5078Z" fill="white"/>
</g>
</svg>
