<svg width="24" height="25" viewBox="0 0 24 25" fill="none" xmlns="http://www.w3.org/2000/svg">
<g id="status-success-svgrepo-com 1">
<path id="Vector" fill-rule="evenodd" clip-rule="evenodd" d="M22 12.5C22 15.1522 20.9464 17.6957 19.0711 19.5711C17.1957 21.4464 14.6522 22.5 12 22.5C9.34783 22.5 6.8043 21.4464 4.92893 19.5711C3.05357 17.6957 2 15.1522 2 12.5C2 9.84783 3.05357 7.3043 4.92893 5.42893C6.8043 3.55357 9.34783 2.5 12 2.5C14.6522 2.5 17.1957 3.55357 19.0711 5.42893C20.9464 7.3043 22 9.84783 22 12.5ZM10.3333 7.5C10.3333 7.05797 10.5089 6.63405 10.8215 6.32149C11.134 6.00893 11.558 5.83333 12 5.83333C12.442 5.83333 12.8659 6.00893 13.1785 6.32149C13.4911 6.63405 13.6667 7.05797 13.6667 7.5V12.5C13.6667 12.942 13.4911 13.3659 13.1785 13.6785C12.8659 13.9911 12.442 14.1667 12 14.1667C11.558 14.1667 11.134 13.9911 10.8215 13.6785C10.5089 13.3659 10.3333 12.942 10.3333 12.5V7.5ZM12 15.8333C11.558 15.8333 11.134 16.0089 10.8215 16.3215C10.5089 16.634 10.3333 17.058 10.3333 17.5C10.3333 17.942 10.5089 18.3659 10.8215 18.6785C11.134 18.9911 11.558 19.1667 12 19.1667C12.442 19.1667 12.8659 18.9911 13.1785 18.6785C13.4911 18.3659 13.6667 17.942 13.6667 17.5C13.6667 17.058 13.4911 16.634 13.1785 16.3215C12.8659 16.0089 12.442 15.8333 12 15.8333Z" fill="#5956FD"/>
</g>
</svg>
