<svg width="24" height="24" viewBox="0 0 24 24" fill="none" xmlns="http://www.w3.org/2000/svg">
<g id="Frame 289511">
<g id="Group 289370">
<path id="Ellipse 30" d="M12.5048 21.8583C14.0175 21.8583 15.2439 20.632 15.2439 19.1192C15.2439 19.0614 15.2421 19.004 15.2386 18.9471C15.2283 18.7817 15.0854 18.6613 14.9196 18.6594L10.1008 18.6048C9.9351 18.6029 9.78946 18.72 9.77549 18.8852C9.76896 18.9623 9.76562 19.0404 9.76562 19.1192C9.76562 20.632 10.992 21.8583 12.5048 21.8583Z" fill="#5956FD"/>
<path id="Ellipse 31" d="M6.1087 9.53533C6.1087 6.00551 8.97018 2.6875 12.5 2.6875C16.0298 2.6875 18.8913 6.00551 18.8913 9.53533V11.782C18.8913 12.9664 19.3978 14.0942 20.283 14.8811C21.2328 15.7254 20.6356 17.2962 19.3647 17.2962H5.63526C4.36437 17.2962 3.76715 15.7254 4.71703 14.8811C5.60223 14.0942 6.1087 12.9664 6.1087 11.782V9.53533Z" fill="#5956FD"/>
</g>
</g>
</svg>
