<svg width="24" height="25" viewBox="0 0 24 25" fill="none" xmlns="http://www.w3.org/2000/svg">
<path d="M21.9994 11.4804L22 16.7672C22 18.2313 20.8571 19.4284 19.4148 19.5151L19.247 19.5201H4.75367C3.28957 19.5201 2.09241 18.3772 2.00574 16.9349L2.00072 16.7672L2 11.4804H21.9994ZM18.26 14.9895H15.7573L15.6554 14.9963C15.289 15.046 15.0065 15.3602 15.0065 15.7403C15.0065 16.1204 15.289 16.4345 15.6554 16.4842L15.7573 16.4911H18.26L18.3619 16.4842C18.7284 16.4345 19.0108 16.1204 19.0108 15.7403C19.0108 15.3602 18.7284 15.046 18.3619 14.9963L18.26 14.9895ZM19.247 5.5C20.7112 5.5 21.9083 6.64293 21.995 8.08525L22 8.25295L21.9994 9.9788H2L2.00072 8.25295C2.00072 6.78885 3.14365 5.59169 4.58597 5.50502L4.75367 5.5H19.247Z" fill="#4F4F4F"/>
</svg>
