<svg width="32" height="32" viewBox="0 0 32 32" fill="none" xmlns="http://www.w3.org/2000/svg">
<g id="close-circle-svgrepo-com 1">
<path id="Vector" fill-rule="evenodd" clip-rule="evenodd" d="M29.3307 15.9974C29.3307 23.3611 23.3611 29.3307 15.9974 29.3307C8.63359 29.3307 2.66406 23.3611 2.66406 15.9974C2.66406 8.63359 8.63359 2.66406 15.9974 2.66406C23.3611 2.66406 29.3307 8.63359 29.3307 15.9974ZM11.9569 11.9569C12.3474 11.5664 12.9806 11.5664 13.3711 11.9569L15.9974 14.5831L18.6235 11.957C19.0141 11.5664 19.6473 11.5664 20.0378 11.957C20.4283 12.3475 20.4283 12.9806 20.0378 13.3711L17.4115 15.9974L20.0378 18.6235C20.4283 19.0141 20.4283 19.6473 20.0378 20.0378C19.6473 20.4283 19.0141 20.4283 18.6235 20.0378L15.9974 17.4117L13.3711 20.0378C12.9806 20.4283 12.3474 20.4283 11.9569 20.0378C11.5664 19.6473 11.5664 19.0141 11.9569 18.6237L14.5831 15.9974L11.9569 13.3711C11.5664 12.9806 11.5664 12.3474 11.9569 11.9569Z" fill="#1D1D1D"/>
</g>
</svg>
