<svg width="24" height="25" viewBox="0 0 24 25" fill="none" xmlns="http://www.w3.org/2000/svg">
<path d="M4.57928 9.06657C4.57928 8.24835 4.59237 7.43014 4.57928 6.61192C4.56271 6.29346 4.63881 5.97703 4.79835 5.70093C4.9579 5.42482 5.19405 5.20088 5.47823 5.05621C6.76993 4.286 8.0158 3.42632 9.34677 2.73465C9.88865 2.48524 10.5006 2.43276 11.077 2.58628C13.3506 3.22777 15.611 3.98053 17.8759 4.6831C18.4759 4.86857 18.9123 5.23513 18.921 5.86352C18.9472 7.82724 18.9603 9.79097 18.8708 11.7329C18.8534 12.13 18.4344 12.6056 18.0722 12.8697C16.894 13.6835 15.6503 14.397 14.4372 15.165C13.5513 15.7258 12.6633 15.4792 11.7687 15.2021C9.85952 14.6065 7.93507 13.9955 6.01062 13.4108C4.99166 13.1031 4.59674 12.6384 4.5771 11.5714C4.56183 10.7357 4.5771 9.89788 4.5771 9.06221L4.57928 9.06657ZM10.3919 3.34123C10.2312 3.34698 10.0723 3.37715 9.92061 3.43069C8.82965 4.07217 7.7387 4.71365 6.66083 5.39441C6.40555 5.55805 6.38809 5.83079 6.76556 5.9508C8.7642 6.57701 10.7606 7.21631 12.768 7.81415C13.0956 7.91967 13.4502 7.90419 13.7673 7.77051C14.7994 7.2054 15.7921 6.5661 16.7871 5.93771C16.8502 5.89446 16.9027 5.83741 16.9405 5.77087C16.9783 5.70433 17.0005 5.63006 17.0053 5.55369C16.99 5.44241 16.8155 5.30495 16.6824 5.26349C15.0437 4.73983 13.4095 4.23145 11.7578 3.73615C11.2952 3.57906 10.8239 3.46123 10.3919 3.34123Z" fill="#4F4F4F"/>
<path d="M2 14.0952C2.09737 13.3651 2.29793 12.6525 2.59566 11.9787C2.63494 11.8937 2.6873 11.8086 2.78985 11.8217C2.8924 11.8347 2.93604 11.9613 2.96222 12.0682C3.07806 12.7247 3.25258 13.3695 3.4837 13.9948C4.09464 15.4349 5.19214 16.3273 6.59293 16.8968C7.99372 17.4663 9.47306 17.643 10.9764 17.6757C11.038 17.6848 11.1008 17.6801 11.1604 17.6621C11.22 17.644 11.2749 17.6131 11.3212 17.5714C11.3674 17.5297 11.4039 17.4784 11.4281 17.421C11.4522 17.3636 11.4634 17.3016 11.4608 17.2393C11.5306 16.5848 11.679 16.5106 12.207 16.8837C13.0187 17.4532 13.8325 18.0205 14.6267 18.614C15.1569 19.0111 15.1417 19.3384 14.6137 19.7049C13.802 20.2744 12.9903 20.8461 12.1699 21.4024C11.7052 21.7188 11.5153 21.6403 11.4913 21.0992C11.4717 20.726 11.2884 20.606 10.9459 20.606C9.08041 20.6043 7.23924 20.183 5.5587 19.3733C3.3397 18.2561 2.14401 16.6262 2 14.0952Z" fill="#4F4F4F"/>
<path d="M21.9882 15.0933C22.0711 17.0155 20.7008 18.7174 19.0164 19.3131C18.8673 19.3832 18.7042 19.4187 18.5395 19.4168C18.3747 19.4149 18.2125 19.3757 18.0651 19.3022C17.4105 18.9072 16.7559 18.4905 16.1013 18.0628C15.9661 17.9734 15.7413 17.8621 15.7981 17.6614C15.8548 17.4606 16.0948 17.4999 16.2628 17.4585C17.6505 17.1246 18.8811 16.5137 19.6601 15.2765C20.217 14.452 20.4679 13.4585 20.3692 12.4684C20.3626 12.3601 20.3626 12.2516 20.3692 12.1433C20.3692 11.9906 20.3997 11.84 20.5481 11.7746C20.6965 11.7091 20.8186 11.8509 20.9212 11.9338C21.2114 12.1673 21.3205 12.5186 21.4689 12.8415C21.8005 13.5681 22.0536 14.31 21.9882 15.0933Z" fill="#4F4F4F"/>
</svg>
