<?xml version="1.0" encoding="utf-8"?>
<!-- Generator: Adobe Illustrator 27.9.0, SVG Export Plug-In . SVG Version: 6.00 Build 0)  -->
<svg version="1.1" id="Layer_1" xmlns="http://www.w3.org/2000/svg" xmlns:xlink="http://www.w3.org/1999/xlink" x="0px" y="0px"
	 viewBox="0 0 24 25" style="enable-background:new 0 0 24 25;" xml:space="preserve">
<style type="text/css">
	.st0{fill:#FFFFFF;}
</style>
<g id="Frame_289505">
	<g id="Group_289369">
		<path id="Vector" class="st0" d="M4.6,9.1c0-0.8,0-1.6,0-2.5c0-0.3,0.1-0.6,0.2-0.9C5,5.4,5.2,5.2,5.5,5.1C6.8,4.3,8,3.4,9.3,2.7
			c0.5-0.2,1.2-0.3,1.7-0.1c2.3,0.6,4.5,1.4,6.8,2.1c0.6,0.2,1,0.6,1,1.2c0,2,0,3.9-0.1,5.9c0,0.4-0.4,0.9-0.8,1.1
			c-1.2,0.8-2.4,1.5-3.6,2.3c-0.9,0.6-1.8,0.3-2.7,0C9.9,14.6,7.9,14,6,13.4c-1-0.3-1.4-0.8-1.4-1.8C4.6,10.7,4.6,9.9,4.6,9.1
			L4.6,9.1z M10.4,3.3c-0.2,0-0.3,0-0.5,0.1c-1.1,0.6-2.2,1.3-3.3,2C6.4,5.6,6.4,5.8,6.8,6c2,0.6,4,1.3,6,1.9c0.3,0.1,0.7,0.1,1,0
			c1-0.6,2-1.2,3-1.8c0.1,0,0.1-0.1,0.2-0.2C17,5.7,17,5.6,17,5.6c0-0.1-0.2-0.2-0.3-0.3c-1.6-0.5-3.3-1-4.9-1.5
			C11.3,3.6,10.8,3.5,10.4,3.3z"/>
		<path id="Vector_2" class="st0" d="M2,14.1c0.1-0.7,0.3-1.4,0.6-2.1c0-0.1,0.1-0.2,0.2-0.2c0.1,0,0.1,0.1,0.2,0.2
			c0.1,0.7,0.3,1.3,0.5,1.9c0.6,1.4,1.7,2.3,3.1,2.9s2.9,0.7,4.4,0.8c0.1,0,0.1,0,0.2,0c0.1,0,0.1,0,0.2-0.1c0,0,0.1-0.1,0.1-0.2
			c0-0.1,0-0.1,0-0.2c0.1-0.7,0.2-0.7,0.7-0.4c0.8,0.6,1.6,1.1,2.4,1.7c0.5,0.4,0.5,0.7,0,1.1c-0.8,0.6-1.6,1.1-2.4,1.7
			c-0.5,0.3-0.7,0.2-0.7-0.3c0-0.4-0.2-0.5-0.5-0.5c-1.9,0-3.7-0.4-5.4-1.2C3.3,18.3,2.1,16.6,2,14.1z"/>
		<path id="Vector_3" class="st0" d="M22,15.1c0.1,1.9-1.3,3.6-3,4.2c-0.1,0.1-0.3,0.1-0.5,0.1c-0.2,0-0.3,0-0.5-0.1
			c-0.7-0.4-1.3-0.8-2-1.2c-0.1-0.1-0.4-0.2-0.3-0.4c0.1-0.2,0.3-0.2,0.5-0.2c1.4-0.3,2.6-0.9,3.4-2.2c0.6-0.8,0.8-1.8,0.7-2.8
			c0-0.1,0-0.2,0-0.3c0-0.2,0-0.3,0.2-0.4c0.1-0.1,0.3,0.1,0.4,0.2c0.3,0.2,0.4,0.6,0.5,0.9C21.8,13.6,22.1,14.3,22,15.1z"/>
	</g>
</g>
</svg>
