<svg width="24" height="25" viewBox="0 0 24 25" fill="none" xmlns="http://www.w3.org/2000/svg">
<g id="Dashoard">
<path id="Vector" d="M4.92855 21.1805H19.0429C19.2937 21.1805 19.5454 21.0689 19.6847 20.8735C20.438 20.0362 20.9958 18.9767 21.3859 17.8887C21.7769 16.773 22 15.601 22 14.4853C22 11.7513 20.8843 9.26905 19.0715 7.42855C17.2301 5.58716 14.7478 4.5 11.9862 4.5C9.22453 4.5 6.74227 5.58805 4.90088 7.42855C3.08805 9.26994 2 11.7245 2 14.4853C2 15.601 2.22314 16.773 2.61409 17.8887C3.00504 18.9767 3.53434 20.0362 4.31535 20.8735C4.45459 21.0689 4.65006 21.1805 4.92944 21.1805H4.92855ZM10.7303 7.42944C10.7303 6.70378 11.2882 6.17448 11.9853 6.17448C12.6824 6.17448 13.2402 6.70467 13.2402 7.42944C13.2402 8.12654 12.6824 8.65674 11.9853 8.65674C11.2882 8.65674 10.7303 8.12654 10.7303 7.42944ZM5.73812 9.49308C5.73812 8.79598 6.29598 8.26579 6.99308 8.26579C7.69019 8.26579 8.24805 8.79598 8.24805 9.49308C8.24805 10.1902 7.69019 10.748 6.99308 10.748C6.29598 10.748 5.73812 10.1902 5.73812 9.49308ZM15.7511 9.49308C15.7511 8.79598 16.3089 8.26579 17.006 8.26579C17.7317 8.26579 18.261 8.79598 18.261 9.49308C18.261 10.1902 17.7308 10.7204 17.006 10.7204C16.3089 10.7204 15.7511 10.1902 15.7511 9.49308ZM11.9023 15.7688L13.3527 10.5802C13.4366 10.3294 13.6597 10.134 13.9668 10.134C14.2738 10.134 14.5809 10.4133 14.5809 10.7195C14.5809 10.7757 14.5247 10.915 14.4693 11.1658C14.3854 11.4452 14.3301 11.7799 14.2185 12.1146C14.1346 12.477 14.023 12.8956 13.9115 13.2865C13.6606 14.1514 13.4089 14.9601 13.2697 15.518C13.1858 15.7974 13.1304 16.0482 13.1019 16.1321C13.6597 16.523 14.0784 17.1362 14.0784 17.8333C14.0784 19.0053 13.1581 19.9255 11.9862 19.9255C10.8142 19.9255 9.92163 19.0053 9.92163 17.8333C9.92163 17.3031 10.1171 16.773 10.4795 16.4106C10.8419 16.0482 11.3721 15.7965 11.9023 15.7688ZM3.67358 14.4862C3.67358 13.7891 4.20378 13.2589 4.90088 13.2589C5.59798 13.2589 6.18441 13.7891 6.18441 14.4862C6.18441 15.1833 5.59888 15.7411 4.90088 15.7411C4.20288 15.7411 3.67358 15.1833 3.67358 14.4862ZM17.8156 14.4862C17.8156 13.7891 18.3735 13.2589 19.0706 13.2589C19.7677 13.2589 20.2979 13.7891 20.2979 14.4862C20.2979 15.1833 19.7677 15.7411 19.0706 15.7411C18.3735 15.7411 17.8156 15.1833 17.8156 14.4862Z" fill="#4F4F4F"/>
</g>
</svg>
