<svg width="20" height="19" viewBox="0 0 20 19" fill="none" xmlns="http://www.w3.org/2000/svg">
<g id="location-svgrepo-com 1">
<g id="Page-1">
<g id="Icon-Set-Filled">
<path id="location" fill-rule="evenodd" clip-rule="evenodd" d="M9.96624 6.82038C9.31609 6.82038 8.78913 7.34734 8.78913 7.99749C8.78913 8.64765 9.31609 9.1746 9.96624 9.1746C10.6164 9.1746 11.1433 8.64765 11.1433 7.99749C11.1433 7.34734 10.6164 6.82038 9.96624 6.82038ZM9.96624 9.95934C8.88291 9.95934 8.0044 9.08122 8.0044 7.99749C8.0044 6.91377 8.88291 6.03565 9.96624 6.03565C11.0496 6.03565 11.9281 6.91377 11.9281 7.99749C11.9281 9.08122 11.0496 9.95934 9.96624 9.95934ZM9.96624 3.28906C7.36601 3.28906 5.25781 5.39726 5.25781 7.99749C5.25781 9.9664 9.18347 15.8492 9.96624 15.8449C10.7369 15.8492 14.6747 9.93972 14.6747 7.99749C14.6747 5.39726 12.5665 3.28906 9.96624 3.28906Z" fill="#828282"/>
</g>
</g>
</g>
</svg>
