<svg width="24" height="24" viewBox="0 0 24 24" fill="none" xmlns="http://www.w3.org/2000/svg">
<g id="help-operator-svgrepo-com 1">
<g id="Group">
<g id="Group_2">
<path id="Vector" d="M21.0109 21.2295C20.8039 17.2976 17.2701 15.671 17.2701 15.671C16.4258 15.2762 14.895 14.5034 13.8914 13.9926C15.1772 12.5858 15.557 10.2921 15.6162 9.96578C15.8845 8.48904 15.7495 6.66124 15.7495 6.66124C15.5041 3.1069 11.9155 3.05107 11.5397 3.05481C11.519 3.05481 11.5055 3.05503 11.5055 3.05503C11.5055 3.05503 11.494 3.05481 11.477 3.05503C11.1363 3.05061 7.50824 3.08659 7.26153 6.66124C7.26153 6.66124 7.12648 8.48883 7.39483 9.96578C7.41226 10.0609 7.45774 10.3259 7.54401 10.6843C8.21994 11.5716 9.26347 12.0068 10.1199 12.2197C10.2276 12.1151 10.3744 12.05 10.537 12.05H12.098C12.4284 12.05 12.6958 12.3177 12.6958 12.648C12.6958 12.9786 12.4284 13.2465 12.098 13.2465H10.537C10.2905 13.2465 10.0798 13.0978 9.98774 12.8857C9.34891 12.7303 8.60965 12.4598 7.94983 11.9944C8.21307 12.6778 8.58822 13.4109 9.12003 13.9928C8.11641 14.5037 6.58629 15.2762 5.74134 15.671C5.74134 15.671 2.20795 17.2976 2.0005 21.2295C2.0005 21.2295 1.93914 21.8834 3.17822 22.1309C3.17822 22.1309 6.9742 22.9973 11.5059 22.9973C16.0381 22.9973 19.8341 22.1309 19.8341 22.1309C21.0729 21.8834 21.0109 21.2295 21.0109 21.2295Z" fill="#828282"/>
<path id="Vector_2" d="M6.04739 11.2431H6.42452V6.81357C6.42542 6.80253 6.42804 6.79193 6.42804 6.78067V6.1266C6.42804 4.96056 6.78795 4.01542 7.49785 3.31725C8.96621 1.8725 11.4744 1.89217 11.5167 1.8981C11.5465 1.8959 14.0337 1.86014 15.5086 3.30376C16.2234 4.00331 16.586 4.95283 16.586 6.1266V6.8182C16.586 6.82503 16.5877 6.83122 16.5877 6.83783V11.2431H16.9648C17.893 11.2431 18.6453 10.4908 18.6453 9.56289V7.94801C18.6453 7.20148 18.1578 6.56948 17.4839 6.35077V6.12678C17.4839 4.70257 17.0304 3.53699 16.1369 2.66224C14.395 0.95738 11.6125 1.00152 11.5152 1.00019C11.3983 0.999079 8.61313 0.964893 6.87203 2.67288C5.98164 3.54674 5.52992 4.70879 5.52992 6.1266V6.34969C4.85511 6.56837 4.36719 7.20083 4.36719 7.94779V9.56267C4.36722 10.4908 5.11968 11.2431 6.04739 11.2431Z" fill="#828282"/>
</g>
</g>
</g>
</svg>
