<svg width="69" height="70" viewBox="0 0 69 70" fill="none" xmlns="http://www.w3.org/2000/svg">
<g id="Group 289381">
<circle id="Ellipse 47" cx="34.5" cy="34.5547" r="34.5" fill="white"/>
<g id="Group 289380">
<path id="Vector" d="M18.2739 16.937C17.2817 17.9285 16.6059 19.1919 16.3318 20.5675C16.0577 21.9431 16.1978 23.3691 16.7342 24.6651C17.2706 25.9611 18.1793 27.0689 19.3453 27.8484C20.5114 28.6279 21.8825 29.0441 23.2851 29.0444C24.6877 29.0446 26.0589 28.6289 27.2253 27.8498C28.3916 27.0707 29.3007 25.9632 29.8376 24.6674C30.3745 23.3716 30.515 21.9457 30.2414 20.57C29.9678 19.1943 29.2924 17.9307 28.3006 16.9388C26.9699 15.6115 25.1672 14.8659 23.2876 14.8656C21.4081 14.8652 19.6051 15.6102 18.2739 16.937ZM26.5997 25.2629C25.9449 25.918 25.1105 26.3643 24.202 26.5453C23.2935 26.7262 22.3518 26.6336 21.496 26.2793C20.6401 25.925 19.9085 25.3249 19.3937 24.5548C18.879 23.7846 18.6042 22.8792 18.604 21.9529C18.6039 21.0265 18.8785 20.121 19.393 19.3507C19.9076 18.5805 20.639 17.9801 21.4948 17.6256C22.3505 17.271 23.2922 17.1782 24.2008 17.3589C25.1093 17.5396 25.9438 17.9857 26.5988 18.6407C27.4757 19.5195 27.9682 20.7101 27.9684 21.9516C27.9686 23.193 27.4764 24.3838 26.5997 25.2629Z" fill="url(#paint0_linear_2419_17987)"/>
<path id="Vector_2" d="M18.0924 40.5873C17.1007 41.579 16.4253 42.8426 16.1517 44.2181C15.8781 45.5937 16.0185 47.0195 16.5552 48.3153C17.0919 49.611 18.0008 50.7185 19.167 51.4977C20.3331 52.2769 21.7042 52.6928 23.1067 52.6928C24.5092 52.6928 25.8802 52.2769 27.0464 51.4977C28.2125 50.7185 29.1214 49.611 29.6581 48.3153C30.1949 47.0195 30.3353 45.5937 30.0617 44.2181C29.7881 42.8426 29.1127 41.579 28.121 40.5873C26.7901 39.2593 24.9868 38.5135 23.1067 38.5135C21.2266 38.5135 19.4233 39.2593 18.0924 40.5873ZM26.4182 48.9131C25.7633 49.5681 24.9288 50.0141 24.0203 50.1948C23.1119 50.3755 22.1702 50.2828 21.3145 49.9283C20.4587 49.5738 19.7273 48.9736 19.2127 48.2034C18.6981 47.4333 18.4234 46.5278 18.4234 45.6016C18.4234 44.6753 18.6981 43.7698 19.2127 42.9997C19.7273 42.2295 20.4587 41.6293 21.3145 41.2748C22.1702 40.9203 23.1119 40.8276 24.0203 41.0083C24.9288 41.189 25.7633 41.635 26.4182 42.29C27.2953 43.1689 27.7878 44.3599 27.7878 45.6016C27.7878 46.8432 27.2953 48.0342 26.4182 48.9131Z" fill="url(#paint1_linear_2419_17987)"/>
<path id="Vector_3" d="M41.9265 16.7532C40.9352 17.7452 40.2603 19.0088 39.9872 20.3844C39.714 21.7599 39.8549 23.1856 40.3919 24.4811C40.9289 25.7766 41.838 26.8838 43.0042 27.6627C44.1705 28.4415 45.5415 28.8571 46.9439 28.8569C48.3463 28.8566 49.7171 28.4405 50.8831 27.6613C52.0491 26.882 52.9578 25.7744 53.4943 24.4787C54.0309 23.183 54.1712 21.7573 53.8975 20.3819C53.6239 19.0064 52.9485 17.743 51.9569 16.7514C50.6255 15.4234 48.8218 14.6777 46.9413 14.6781C45.0609 14.6784 43.2574 15.4247 41.9265 16.7532ZM50.2524 25.079C49.5974 25.7339 48.7629 26.18 47.8545 26.3607C46.946 26.5414 46.0044 26.4486 45.1486 26.0942C44.2929 25.7397 43.5614 25.1395 43.0468 24.3693C42.5322 23.5991 42.2576 22.6937 42.2576 21.7674C42.2576 20.8412 42.5322 19.9357 43.0468 19.1656C43.5614 18.3954 44.2929 17.7951 45.1486 17.4407C46.0044 17.0862 46.946 16.9935 47.8545 17.1742C48.7629 17.3549 49.5974 17.8009 50.2524 18.4559C51.1297 19.3347 51.6225 20.5257 51.6225 21.7674C51.6225 23.0092 51.1297 24.2002 50.2524 25.079Z" fill="url(#paint2_linear_2419_17987)"/>
<path id="Vector_4" d="M41.7426 40.3902C40.7505 41.3816 40.0746 42.645 39.8006 44.0206C39.5265 45.3962 39.6665 46.8222 40.2029 48.1182C40.7393 49.4142 41.648 50.522 42.8141 51.3015C43.9802 52.081 45.3512 52.4972 46.7538 52.4975C48.1565 52.4978 49.5277 52.082 50.694 51.3029C51.8604 50.5238 52.7695 49.4164 53.3063 48.1205C53.8432 46.8247 53.9838 45.3988 53.7102 44.0231C53.4366 42.6474 52.7612 41.3838 51.7694 40.392C50.4387 39.0646 48.6359 38.319 46.7564 38.3187C44.8768 38.3183 43.0738 39.0633 41.7426 40.3902ZM50.0685 48.716C49.4136 49.3712 48.5792 49.8174 47.6708 49.9984C46.7623 50.1793 45.8206 50.0868 44.9647 49.7325C44.1088 49.3782 43.3773 48.778 42.8625 48.0079C42.3477 47.2378 42.0729 46.3323 42.0728 45.406C42.0727 44.4797 42.3472 43.5741 42.8618 42.8039C43.3763 42.0336 44.1077 41.4333 44.9635 41.0787C45.8193 40.7242 46.761 40.6314 47.6695 40.8121C48.578 40.9927 49.4126 41.4388 50.0676 42.0938C50.9437 42.9727 51.4355 44.1632 51.4353 45.4042C51.4352 46.6452 50.943 47.8355 50.0667 48.7142L50.0685 48.716Z" fill="url(#paint3_linear_2419_17987)"/>
<path id="Vector_5" d="M25 33.6875L35.0304 43.7179L45.058 33.6902L35.0276 23.6599L25 33.6875ZM41.6914 33.7326L35.0746 40.3494L28.3666 33.6415L34.9834 27.0247L41.6914 33.7326Z" fill="url(#paint4_linear_2419_17987)"/>
</g>
</g>
<defs>
<linearGradient id="paint0_linear_2419_17987" x1="18.273" y1="26.9665" x2="28.3024" y2="16.937" gradientUnits="userSpaceOnUse">
<stop stop-color="#C152E2"/>
<stop offset="1" stop-color="#6ECBF5"/>
</linearGradient>
<linearGradient id="paint1_linear_2419_17987" x1="18.0924" y1="50.6158" x2="28.121" y2="40.5873" gradientUnits="userSpaceOnUse">
<stop stop-color="#C152E2"/>
<stop offset="1" stop-color="#6ECBF5"/>
</linearGradient>
<linearGradient id="paint2_linear_2419_17987" x1="41.9265" y1="26.7817" x2="51.9551" y2="16.7532" gradientUnits="userSpaceOnUse">
<stop stop-color="#C152E2"/>
<stop offset="1" stop-color="#6ECBF5"/>
</linearGradient>
<linearGradient id="paint3_linear_2419_17987" x1="41.7417" y1="50.4196" x2="51.7712" y2="40.3902" gradientUnits="userSpaceOnUse">
<stop stop-color="#C152E2"/>
<stop offset="1" stop-color="#6ECBF5"/>
</linearGradient>
<linearGradient id="paint4_linear_2419_17987" x1="30.0143" y1="38.7018" x2="40.0437" y2="28.6723" gradientUnits="userSpaceOnUse">
<stop stop-color="#C152E2"/>
<stop offset="1" stop-color="#6ECBF5"/>
</linearGradient>
</defs>
</svg>
