<svg width="24" height="24" viewBox="0 0 24 24" fill="none" xmlns="http://www.w3.org/2000/svg">
<g id="logout-svgrepo-com 1">
<path id="Vector" d="M3.60156 16.5699V7.40569C3.60156 6.56194 3.95331 5.81194 4.51581 5.22619C5.07831 4.66369 5.80506 4.35919 6.64881 4.35919H11.2426V6.25744H6.64881C6.01581 6.25744 5.52381 6.77344 5.52381 7.40569V16.5699C5.52381 17.2029 6.01581 17.6949 6.64881 17.6949H11.2426V19.6172H6.64881C5.80506 19.6172 5.07831 19.2887 4.51581 18.7262C3.95331 18.1404 3.60156 17.4137 3.60156 16.5699ZM8.64081 13.8039V10.1477C8.64081 9.72544 9.01581 9.37444 9.43806 9.37444H13.6801V6.49144C13.6801 6.23344 13.8211 6.02269 14.0551 5.90569C14.1488 5.88244 14.2426 5.88244 14.2898 5.88244C14.4541 5.88244 14.5943 5.92969 14.7121 6.04669L20.2201 11.5547C20.4781 11.7654 20.4548 12.1877 20.2201 12.4217L14.7121 17.9064C14.3836 18.2582 13.6808 18.0474 13.6808 17.4842V14.5779H9.43881C9.01656 14.5779 8.64156 14.2262 8.64156 13.8047L8.64081 13.8039Z" fill="#828282"/>
</g>
</svg>
