<svg width="29" height="32" viewBox="0 0 29 32" fill="none" xmlns="http://www.w3.org/2000/svg">
<path d="M14.2865 29.1589C11.4609 29.1589 8.69874 28.321 6.34934 26.7512C3.99994 25.1814 2.16881 22.9501 1.0875 20.3396C0.00619006 17.7291 -0.27673 14.8566 0.274517 12.0853C0.825764 9.31396 2.18642 6.76836 4.18442 4.77036C6.18242 2.77236 8.72803 1.4117 11.4993 0.860455C14.2706 0.309208 17.1432 0.592128 19.7537 1.67344C22.3642 2.75475 24.5954 4.58589 26.1653 6.93529C27.7351 9.28469 28.573 12.0468 28.573 14.8724C28.5659 18.6593 27.0584 22.289 24.3807 24.9667C21.703 27.6444 18.0733 29.1518 14.2865 29.1589ZM14.2865 1.96548C11.7353 1.9646 9.24117 2.7203 7.11951 4.13702C4.99786 5.55373 3.344 7.56783 2.3671 9.92455C1.39019 12.2813 1.13413 14.8748 1.6313 17.377C2.12847 19.8793 3.35652 22.1779 5.16017 23.9822C6.96381 25.7865 9.26201 27.0153 11.7641 27.5133C14.2662 28.0114 16.8598 27.7562 19.2168 26.7801C21.5739 25.804 23.5886 24.1509 25.006 22.0297C26.4235 19.9086 27.18 17.4147 27.18 14.8635C27.1765 11.4446 25.8171 8.16667 23.4 5.74872C20.9828 3.33077 17.7054 1.97021 14.2865 1.96548Z" fill="url(#paint0_linear_2112_22941)"/>
<path d="M4.61719 31.3125C6.22078 31.0441 7.83788 30.8638 9.4612 30.7723C11.0744 30.6741 12.6891 30.625 14.3052 30.625C15.9214 30.625 17.5331 30.6696 19.1492 30.7723C20.7665 30.8647 22.3776 31.045 23.9754 31.3125C22.372 31.5829 20.7548 31.7632 19.1314 31.8527C17.5152 31.9554 15.9035 32.0045 14.2873 32.0001C12.6712 31.9956 11.055 31.9554 9.44334 31.8527C7.82599 31.7606 6.21488 31.5803 4.61719 31.3125Z" fill="url(#paint1_linear_2112_22941)"/>
<defs>
<linearGradient id="paint0_linear_2112_22941" x1="-0.00892262" y1="14.8635" x2="28.5819" y2="14.8635" gradientUnits="userSpaceOnUse">
<stop stop-color="#C152E2"/>
<stop offset="1" stop-color="#6ECBF5"/>
</linearGradient>
<linearGradient id="paint1_linear_2112_22941" x1="4.59933" y1="31.3036" x2="23.9754" y2="31.3036" gradientUnits="userSpaceOnUse">
<stop stop-color="#C152E2"/>
<stop offset="1" stop-color="#6ECBF5"/>
</linearGradient>
</defs>
</svg>
