<svg width="33" height="33" viewBox="0 0 33 33" fill="none" xmlns="http://www.w3.org/2000/svg">
<path d="M9.98958 12.4635H23.3229M9.98958 17.7969H23.3229M28.6563 27.1302L24.2238 24.9139C23.8878 24.7459 23.7199 24.6619 23.5437 24.6027C23.3875 24.5502 23.2265 24.5122 23.0632 24.4893C22.8792 24.4635 22.6913 24.4635 22.3157 24.4635H8.92292C7.42944 24.4635 6.6827 24.4635 6.11228 24.1729C5.6105 23.9173 5.20256 23.5093 4.9469 23.0075C4.65625 22.4371 4.65625 21.6903 4.65625 20.1969V10.0635C4.65625 8.57006 4.65625 7.82333 4.9469 7.2529C5.20256 6.75113 5.6105 6.34318 6.11228 6.08753C6.6827 5.79687 7.42945 5.79688 8.92292 5.79688H24.3896C25.883 5.79688 26.6299 5.79687 27.2003 6.08753C27.702 6.34318 28.11 6.75113 28.3656 7.2529C28.6563 7.82333 28.6563 8.57007 28.6563 10.0635V27.1302Z" stroke="#5956FD" stroke-width="1.5" stroke-linecap="round" stroke-linejoin="round"/>
</svg>
