<svg width="33" height="32" viewBox="0 0 33 32" fill="none" xmlns="http://www.w3.org/2000/svg">
    <g clip-path="url(#b7u6ds58ha)" fill="#8325E7">
        <circle opacity=".15" cx="16.031" cy="16" r="16"/>
        <path d="M23.47 21.44v2.688c0 .403-.268.671-.671.671H10.703c-.403 0-.672-.268-.672-.671v-8.736c0-.403.269-.672.672-.672H22.8c.403 0 .672.269.672.672v2.688h-3.024c-.94 0-1.68.739-1.68 1.68 0 .94.74 1.68 1.68 1.68h3.024zm-3.023-2.352c-.403 0-.672.268-.672.672 0 .403.269.672.672.672s.672-.27.672-.672c0-.404-.269-.672-.672-.672zM19.103 8c-.94 0-1.68.74-1.68 1.68s.74 1.68 1.68 1.68 1.68-.74 1.68-1.68S20.043 8 19.103 8zm-2.554 5.376a1.86 1.86 0 0 0 .202-.874c0-1.142-.874-2.016-2.016-2.016s-2.016.874-2.016 2.016c0 .336.067.605.202.874h3.628z"/>
    </g>
    <defs>
        <clipPath id="b7u6ds58ha">
            <path fill="#fff" transform="translate(.031)" d="M0 0h32v32H0z"/>
        </clipPath>
    </defs>
</svg>
