<svg width="24" height="25" viewBox="0 0 24 25" fill="none" xmlns="http://www.w3.org/2000/svg">
<g id="Frame 289503">
<g id="Group 289357">
<path id="Subtract" fill-rule="evenodd" clip-rule="evenodd" d="M12 2.5C13.3058 2.5 14.3266 2.5 15.155 2.55353C15.0545 2.8533 15 3.1742 15 3.50781C13.3431 3.50781 12 4.85096 12 6.50781C12 8.16467 13.3431 9.50781 15 9.50781C15 11.1647 16.3431 12.5078 18 12.5078C18.7684 12.5078 19.4692 12.219 20 11.7439V14.5C20 17.4908 20 18.9862 19.3569 20.1C18.9356 20.8297 18.3297 21.4356 17.6 21.8569C16.4862 22.5 14.9908 22.5 12 22.5C9.00923 22.5 7.51384 22.5 6.4 21.8569C5.67031 21.4356 5.06437 20.8297 4.64308 20.1C4 18.9862 4 17.4908 4 14.5V10.5C4 7.50923 4 6.01384 4.64308 4.9C5.06437 4.17031 5.67031 3.56437 6.4 3.14308C7.51384 2.5 9.00923 2.5 12 2.5ZM8 11.54C7.46981 11.54 7.04 11.9698 7.04 12.5C7.04 13.0302 7.46981 13.46 8 13.46H12C12.5302 13.46 12.96 13.0302 12.96 12.5C12.96 11.9698 12.5302 11.54 12 11.54H8ZM8 14.54C7.46981 14.54 7.04 14.9698 7.04 15.5C7.04 16.0302 7.46981 16.46 8 16.46H14C14.5302 16.46 14.96 16.0302 14.96 15.5C14.96 14.9698 14.5302 14.54 14 14.54H8ZM8 17.54C7.46981 17.54 7.04 17.9698 7.04 18.5C7.04 19.0302 7.46981 19.46 8 19.46H12C12.5302 19.46 12.96 19.0302 12.96 18.5C12.96 17.9698 12.5302 17.54 12 17.54H8Z" fill="white"/>
<path id="Vector 52" d="M18 3.50781L18 9.50781" stroke="white" stroke-width="2.4" stroke-linecap="round"/>
<path id="Vector 53" d="M21 6.5L15 6.5" stroke="white" stroke-width="2.4" stroke-linecap="round"/>
</g>
</g>
</svg>
