<svg width="14" height="14" viewBox="0 0 14 14" fill="none" xmlns="http://www.w3.org/2000/svg">
<g id="star-full-outline-svgrepo-com 1">
<path id="Vector" d="M1.90784 6.49187L3.98489 8.39583L3.40793 11.0498C3.35024 11.396 3.46563 11.7422 3.75411 11.9153C3.8695 12.0307 4.04258 12.0884 4.21567 12.0884C4.33106 12.0884 4.44645 12.0884 4.56185 12.0307C4.56185 12.0307 4.61954 12.0307 4.61954 11.973L6.98507 10.646L9.35059 11.973C9.35059 11.973 9.40829 11.973 9.40829 12.0307C9.69676 12.146 10.0429 12.146 10.2737 11.973C10.5622 11.7999 10.6776 11.4537 10.6199 11.1075L10.0429 8.45352C10.2737 8.28043 10.6199 7.93426 10.9661 7.58809L12.0623 6.60726L12.12 6.54956C12.3508 6.31878 12.4085 5.97261 12.2931 5.68413C12.1777 5.39565 11.9469 5.16487 11.6007 5.10717H11.543L8.83133 4.81869L7.73511 2.33778C7.73511 2.33778 7.73511 2.28008 7.67741 2.28008C7.61972 1.87621 7.33124 1.70312 7.04276 1.70312C6.75428 1.70312 6.4658 1.87621 6.29272 2.16469C6.29272 2.16469 6.29272 2.22239 6.23502 2.22239L5.1388 4.7033L2.4271 4.99178H2.36941C2.08093 5.04948 1.79245 5.28026 1.67706 5.56874C1.61936 5.91491 1.67706 6.26109 1.90784 6.49187Z" fill="#E2B93B"/>
</g>
</svg>
