<svg width="17" height="18" viewBox="0 0 17 18" fill="none" xmlns="http://www.w3.org/2000/svg">
<path d="M5.22203 10.636L5.28305 10.3553L5.0713 10.1612L2.43361 7.74328C2.30737 7.61207 2.23617 7.38319 2.27666 7.06767C2.36557 6.89244 2.55321 6.74215 2.7325 6.69134H2.74807H2.77459L2.80096 6.68854L6.25698 6.32087L6.54455 6.29028L6.66143 6.02576L7.99515 3.00735C8.05068 2.95486 8.08816 2.89782 8.11275 2.84863C8.12202 2.8301 8.12981 2.81203 8.13636 2.79476C8.27881 2.59087 8.47573 2.5 8.63065 2.5C8.71672 2.5 8.78455 2.5257 8.83008 2.5627C8.86989 2.59504 8.92375 2.66057 8.94453 2.80603L9.00586 3.23532H9.15484L10.4528 6.17283L10.5697 6.43735L10.8573 6.46794L14.3133 6.8356L14.3397 6.83841H14.3662H14.3928C14.613 6.88685 14.7683 7.03548 14.8579 7.25942C14.9349 7.45204 14.8927 7.67841 14.7479 7.82316L15.0933 8.16849L14.7479 7.82316L14.6842 7.88688L13.2975 9.12767L13.2871 9.13693L13.2773 9.14674C12.8227 9.6013 12.4126 10.0096 12.1543 10.2033L11.8976 10.3959L11.9657 10.7095L12.6982 14.0788C12.7431 14.3689 12.6359 14.5732 12.4912 14.66L12.4691 14.6733L12.4485 14.6888C12.3591 14.7557 12.1769 14.7925 11.9625 14.7402C11.9184 14.6998 11.8727 14.6709 11.8323 14.6507C11.8063 14.6377 11.7812 14.6276 11.7579 14.6198L8.80175 12.9614L8.55712 12.8242L8.31249 12.9614L5.29767 14.6527L5.15427 14.7331C5.12447 14.7349 5.08407 14.7358 5.02757 14.7358C4.90621 14.7358 4.82494 14.6937 4.79286 14.6617L4.74934 14.6181L4.69656 14.5865C4.55186 14.4997 4.44465 14.2954 4.48958 14.0052L5.22203 10.636Z" stroke="#E2B93B"/>
</svg>
