<svg width="14" height="14" viewBox="0 0 14 14" fill="none" xmlns="http://www.w3.org/2000/svg">
<g id="half-star-svgrepo-com 1" clip-path="url(#clip0_2921_16394)">
<path id="Vector" d="M12.5009 6.00034C12.6266 5.90671 12.7198 5.77609 12.7675 5.6268C12.8152 5.47751 12.815 5.31703 12.7669 5.16787C12.7188 5.01871 12.6252 4.88835 12.4993 4.79506C12.3733 4.70177 12.2214 4.65023 12.0647 4.64767L9.02116 4.53269C9.00619 4.53166 8.99185 4.52632 8.97985 4.51732C8.96785 4.50832 8.95871 4.49604 8.95352 4.48197L7.90183 1.64137C7.84898 1.49685 7.75301 1.37206 7.6269 1.28389C7.50078 1.19572 7.35063 1.14844 7.19675 1.14844C7.04287 1.14844 6.89271 1.19572 6.7666 1.28389C6.64049 1.37206 6.54451 1.49685 6.49167 1.64137L5.44335 4.49211C5.43817 4.50619 5.42903 4.51847 5.41703 4.52747C5.40503 4.53647 5.39068 4.5418 5.37572 4.54284L2.33222 4.65781C2.17552 4.66037 2.02354 4.71191 1.89761 4.8052C1.77167 4.89849 1.67809 5.02886 1.62999 5.17802C1.58188 5.32718 1.58167 5.48766 1.62937 5.63694C1.67707 5.78623 1.7703 5.91685 1.89599 6.01048L4.28344 7.88731C4.29539 7.89671 4.30432 7.90941 4.30913 7.92383C4.31394 7.93826 4.31441 7.95377 4.3105 7.96847L3.48875 10.8801C3.44617 11.0283 3.45029 11.1861 3.50057 11.332C3.55084 11.4778 3.64482 11.6046 3.76972 11.6952C3.89462 11.7857 4.04437 11.8356 4.19861 11.838C4.35286 11.8404 4.50409 11.7952 4.63175 11.7086L7.15448 10.0178C7.1669 10.0092 7.18165 10.0046 7.19675 10.0046C7.21185 10.0046 7.22659 10.0092 7.23902 10.0178L9.76174 11.7086C9.88768 11.7981 10.0384 11.8463 10.1929 11.8463C10.3474 11.8463 10.4981 11.7981 10.6241 11.7086C10.749 11.6189 10.8431 11.4927 10.8933 11.3474C10.9436 11.202 10.9476 11.0447 10.9047 10.897L10.0762 7.97523C10.0718 7.96056 10.0721 7.9449 10.0769 7.93037C10.0818 7.91585 10.091 7.90317 10.1033 7.89407L12.5009 6.00034ZM9.42357 8.14093L10.2521 11.0627C10.2588 11.0783 10.26 11.0958 10.2555 11.1121C10.2509 11.1285 10.2409 11.1429 10.227 11.1527C10.2132 11.1626 10.1964 11.1675 10.1794 11.1665C10.1624 11.1655 10.1463 11.1587 10.1337 11.1472L7.611 9.4564C7.48722 9.37259 7.34116 9.32783 7.19168 9.3279V1.82736C7.2076 1.82607 7.22346 1.83045 7.23646 1.83973C7.24946 1.84902 7.25875 1.8626 7.26269 1.87808L8.31439 4.72207C8.36533 4.86223 8.45687 4.98405 8.57732 5.07198C8.69778 5.15992 8.8417 5.20998 8.99072 5.21579L12.0342 5.33077C12.0501 5.33051 12.0657 5.33536 12.0787 5.34461C12.0916 5.35386 12.1013 5.36702 12.1062 5.38216C12.1111 5.39729 12.111 5.41361 12.106 5.4287C12.101 5.4438 12.0912 5.45688 12.0782 5.46603L9.69073 7.34286C9.5712 7.43367 9.48178 7.55837 9.43413 7.70071C9.38648 7.84306 9.3828 7.99646 9.42357 8.14093Z" fill="#E2B93B"/>
</g>
<defs>
<clipPath id="clip0_2921_16394">
<rect width="13.2944" height="13.2944" fill="white" transform="translate(0.585938 0.0390625)"/>
</clipPath>
</defs>
</svg>
