<svg width="24" height="24" viewBox="0 0 24 24" fill="none" xmlns="http://www.w3.org/2000/svg">
<g id="status-success-svgrepo-com 1">
<path id="Vector" fill-rule="evenodd" clip-rule="evenodd" d="M12 22C14.6522 22 17.1957 20.9464 19.0711 19.0711C20.9464 17.1957 22 14.6522 22 12C22 9.34784 20.9464 6.8043 19.0711 4.92893C17.1957 3.05357 14.6522 2 12 2C9.34784 2 6.8043 3.05357 4.92893 4.92893C3.05357 6.8043 2 9.34784 2 12C2 14.6522 3.05357 17.1957 4.92893 19.0711C6.8043 20.9464 9.34784 22 12 22ZM16.2933 10.3C16.4962 10.0444 16.591 9.71955 16.5575 9.39495C16.5241 9.07034 16.365 8.77168 16.1144 8.56277C15.8637 8.35386 15.5412 8.25127 15.2159 8.27691C14.8906 8.30255 14.5882 8.4544 14.3733 8.7L11.0833 12.6483L9.55 11.115C9.31414 10.8874 8.99833 10.7616 8.67058 10.7646C8.34284 10.7676 8.02938 10.8992 7.79773 11.131C7.56608 11.3629 7.43476 11.6765 7.43207 12.0042C7.42938 12.332 7.55552 12.6477 7.78333 12.8833L10.2833 15.3833C10.4061 15.506 10.5531 15.6018 10.715 15.6646C10.8768 15.7273 11.05 15.7557 11.2234 15.7479C11.3968 15.74 11.5667 15.6962 11.7222 15.619C11.8777 15.5419 12.0155 15.4333 12.1267 15.3L16.2933 10.3Z" fill="#5956FD"/>
</g>
</svg>
