<svg width="33" height="32" viewBox="0 0 33 32" fill="none" xmlns="http://www.w3.org/2000/svg">
    <g clip-path="url(#ecn6ex941a)" fill="#8325E7">
        <circle opacity=".15" cx="16.031" cy="16" r="16"/>
        <path fill-rule="evenodd" clip-rule="evenodd" d="m8.531 11.77 6.363-2.622a1.92 1.92 0 0 1 1.477 0l6.363 2.621v6.462c0 3.462-7.101 6.769-7.101 6.769S8.53 21.693 8.53 18.23v-6.46zm5.007 6.843a.488.488 0 0 1 .143.345 1.464 1.464 0 0 0 1.464 1.464v-2.929a2.441 2.441 0 0 1 0-4.882v-.488a.488.488 0 1 1 .977 0v.488a2.444 2.444 0 0 1 2.44 2.441.488.488 0 0 1-.976 0 1.465 1.465 0 0 0-1.464-1.465v2.93a2.44 2.44 0 1 1 0 4.882v.488a.488.488 0 0 1-.977 0v-.488a2.444 2.444 0 0 1-2.44-2.441.488.488 0 0 1 .833-.345zm3.62-.69a1.465 1.465 0 0 0-1.036-.43v2.93a1.465 1.465 0 0 0 1.035-2.5zm-3.048-3.907a1.465 1.465 0 0 0 1.035 2.5v-2.929c-.388 0-.76.155-1.035.43z"/>
    </g>
    <defs>
        <clipPath id="ecn6ex941a">
            <path fill="#fff" transform="translate(.031)" d="M0 0h32v32H0z"/>
        </clipPath>
    </defs>
</svg>
