<svg width="122" height="122" viewBox="0 0 122 122" fill="none" xmlns="http://www.w3.org/2000/svg">
<g id="Group 289321">
<rect id="Rectangle 666" x="0.5" y="0.5" width="121" height="121" rx="4.92222" stroke="#828282" stroke-dasharray="10 10"/>
<path id="photo" fill-rule="evenodd" clip-rule="evenodd" d="M85.6773 71.9383L75.2569 55.7485C74.5249 54.6438 73.2882 54.5742 72.4943 55.5927C72.4566 55.6411 72.4205 55.6912 72.3857 55.7432L67.1098 63.9287L55.5783 46.0281C54.4942 44.3953 52.6638 44.2944 51.4903 45.8033C51.4343 45.8753 51.3804 45.9502 51.3287 46.0281L35.9038 69.9939C34.377 72.3638 35.6621 76.013 38.0286 76.013H84.2438C85.2214 76.0838 86.0552 75.0387 86.1061 73.6785C86.1298 73.043 85.9763 72.4198 85.6773 71.9383Z" fill="#828282"/>
</g>
</svg>
